<svg id="Layer_1" data-name="Layer 1" xmlns="http://www.w3.org/2000/svg" viewBox="0 0 1500 600"><rect width="1500" height="600" fill="#fff"/><ellipse cx="1258.99" cy="227.27" rx="47.88" ry="40.78" transform="translate(208.04 956.81) rotate(-45)" fill="#294394"/><path d="M1355.71,199.43c-2.13,2.48-4.33,7.58-4.47,8-4.41,12.89,6.36,30.21,16,39.9,6.25,6.31,28.81,20.11,33,22.51,8.66,5-9.57,28.78-18.12,23.71-12.73-7.56-23.72-14.91-32.71-23.34-13.46-12.6-21.31-26-20-38.36C1330.87,217.51,1342.54,206.91,1355.71,199.43Z" fill="#f7c9d7"/><path d="M1355.71,199.43h0c16.91-9.6,38.31-15.18,41.88-15.43,9.51-.67,12.58,26.7,3,29-6.08,1.45-38,8.35-40.2,22.29-.63,3.9,4.69,10,5.6,10.82C1353.31,234.43,1342,211.69,1355.71,199.43Z" fill="#294394"/><path d="M1183.42,161.79c3.43.77,9.39.26,9.84.19,14.48-2.36,25.45-21.38,29.77-35.45,2.81-9.14,4.46-34.54,4.73-41,.46-11.27,31.52-8.07,31.6,2.59a166.64,166.64,0,0,1-5.52,43.77c-5.13,19.19-13.84,33.44-26.26,38.49C1213.21,176.19,1197.21,170.49,1183.42,161.79Z" fill="#f7c9d7"/><path d="M1183.42,161.79h0c-17.71-11.17-32.83-26.51-35.11-29.62-6.08-8.34,14.34-31,21-22.78,14,17.42,31.53,34.08,44.32,30.07,5.5-1.72,8.54-9.91,8.86-11.18C1217.86,146.28,1201.38,168.59,1183.42,161.79Z" fill="#294394"/><path d="M1160.38,257.53c2.31-2.65,4.73-8.13,4.88-8.56,4.86-13.84-6.6-32.58-16.88-43.1-6.69-6.84-29.28-21.21-33.75-23.79-8.7-5,8.81-30.82,17.4-26.51,14.25,7.15,26.17,16.66,35.78,25.81,14.39,13.68,22.74,28.15,21.23,41.47C1187.28,238.26,1174.62,249.58,1160.38,257.53Z" fill="#f7c9d7"/><path d="M1160.38,257.53h0c-18.29,10.2-39.32,14.26-43,15.39-8.52,2.62-26.12-25.85-14.59-27.81,22-3.76,50.83-13,52.81-26.23.62-4.2-5-10.8-5.94-11.69C1159.42,216.21,1175.14,242.15,1160.38,257.53Z" fill="#294394"/><path d="M1322,286.92c-3.48.42-9,2.87-9.35,3.09-12.88,7-16.93,28.61-16.34,43.31.38,9.56,7.53,35.35,9.12,40.27,2.58,8-27.81,16.53-30.68,8a180.85,180.85,0,0,1-9.28-43.13c-1.52-19.8,2-36.13,12-45C1289.14,283.21,1306.12,283.29,1322,286.92Z" fill="#f7c9d7"/><path d="M1322,286.92h0c20.41,4.68,44,17.75,47.11,19.95,9.3,6.49-8.8,29.78-16.43,24.79-8.36-5.46-39.85-22.65-53-12.83-3.41,2.54-3.54,11.34-3.43,12.65C1294.65,313,1302.59,286.9,1322,286.92Z" fill="#294394"/><path d="M1347.45,174.62c-3.52.08-9.27-1.57-9.7-1.73-13.75-5.12-20.82-25.91-22.32-40.55-1-9.52,2.59-41.77,3.44-46.87,2-12.21-30.21-11.84-32.47-.44-3.11,15.64-3.11,33.33-2.23,46.57,1.31,19.82,7.09,35.49,18.29,42.85C1315.43,183,1332.23,180.47,1347.45,174.62Z" fill="#f7c9d7"/><path d="M1347.45,174.62h0c12.35-4.49,22.62-14,24.65-16.74,7.24-9.93-7.69-34.1-15.72-26.57-17.35,16.25-30,18.23-34.39,15.1s-6.3-10.93-6.37-12.25C1316.66,152.72,1328.53,176.82,1347.45,174.62Z" fill="#294394"/><path d="M467.53,514.32v-41.4h9.06v16.34h16V472.92h9.07v41.4h-9.07V497.65h-16v16.67Z" fill="#294394"/><path d="M531,514.32v-41.4h26.3v8.39H540.05v8.11h15.27v7.95H540.05v8.56h17.23v8.39Z" fill="#294394"/><path d="M581.63,514.32l14.77-41.4h8.84L620,514.32h-9.62l-2.91-8.73H594.05l-3,8.73Zm15-16.34h8.17l-3-8.84a35.54,35.54,0,0,1-1.12-4,32.37,32.37,0,0,1-1.12,4Z" fill="#294394"/><path d="M654.54,505.93h16.34v8.39H645.47v-41.4h9.07Z" fill="#294394"/><path d="M689.63,472.92h32.56v8.39H710.44v33h-9.06v-33H689.63Z" fill="#294394"/><path d="M748.33,514.32v-41.4h9.06v16.34h16V472.92h9.07v41.4h-9.07V497.65h-16v16.67Z" fill="#294394"/><path d="M809.49,493.68c0-12.93,8.22-21.43,20.59-21.43,10.35,0,17.79,5.93,19.08,15.22h-9.57c-1.23-4.15-4.76-6.5-9.73-6.5-6.72,0-10.8,4.76-10.8,12.65s4.14,12.64,10.8,12.64c5.09,0,8.84-2.51,10-6.6h9.39C847.76,508.89,840,515,829.69,515,817.27,515,809.49,506.77,809.49,493.68Z" fill="#294394"/><path d="M870.21,514.32,885,472.92h8.84l14.71,41.4h-9.62L896,505.59H882.63l-3,8.73Zm15-16.34h8.16l-3-8.84a35.54,35.54,0,0,1-1.12-4,34.23,34.23,0,0,1-1.12,4Z" fill="#294394"/><path d="M934.05,514.32v-41.4h16c10.07,0,15.77,4.87,15.77,13.43,0,5.37-2.29,9.17-6.88,11.52l7.27,16.45h-9.9l-6.21-14.49h-7v14.49Zm9.07-22.43H950c4,0,6.27-2,6.27-5.54s-2.19-5.38-6.21-5.38h-6.94Z" fill="#294394"/><path d="M993.26,514.32v-41.4h26.29v8.39h-17.23v8.11h15.28v7.95h-15.28v8.56h17.23v8.39Z" fill="#294394"/><path d="M93.56,437.4V298.28H128.2v18c8.73-14.08,25.63-22.25,44.5-22.25,34.92,0,52.94,21.69,52.94,57.74V437.4H191.28V360c0-23.37-11.54-34.64-29.29-34.64-21.12,0-34.07,14.65-34.07,37.18V437.4Z" fill="#294394"/><path d="M241.41,367.84c0-43.65,28.44-73.79,69.28-73.79,41.68,0,68.16,27.88,68.16,71.26v10.42L274.08,376c2.53,24.5,15.49,36.89,38.3,36.89,18.87,0,31.26-7.32,35.2-20.56h31.83c-5.92,30.42-31.26,48.72-67.59,48.72C270.42,441.06,241.41,410.93,241.41,367.84ZM274.92,354h69.85c0-19.15-13.24-31.82-33.8-31.82C290.69,322.22,278.3,333.2,274.92,354Z" fill="#294394"/><path d="M525.29,298.28V437.4h-34.1l-.26-18.58c-8.45,13.23-26.47,22.24-45.06,22.24-32.11,0-51-21.68-51-55.76v-87h34.36v74.91c0,26.47,10.43,37.18,29.58,37.18,21.68,0,32.1-12.68,32.1-39.15V298.28Z" fill="#294394"/><path d="M638.22,329.54H625.55c-24.79,0-40.28,13.23-40.28,40.27V437.4H550.91V298.56H585.2l.07,20.28c5.92-13.8,19.15-23.1,37.74-23.1a61.32,61.32,0,0,1,15.21,2Z" fill="#294394"/><path d="M713.13,294.33c43.09,0,74.35,29.86,74.35,73.23s-31.26,73.22-74.35,73.22-74.35-29.85-74.35-73.22S670,294.33,713.13,294.33Zm0,115.76c23.66,0,40-17.18,40-42.53S736.79,325,713.13,325s-40,17.18-40,42.53S689.47,410.09,713.13,410.09Z" fill="#294394"/><path d="M804.94,437.4V298.28h34.61l0,18c8.73-14.08,25.63-22.25,44.5-22.25,34.92,0,52.94,21.69,52.94,57.74V437.4H902.67V360c0-23.37-11.55-34.64-29.29-34.64-21.13,0-34.08,14.65-34.08,37.18V437.4Z" fill="#294394"/><path d="M1022.35,294.05c38,0,63.93,21.12,67.6,54.64h-34.36c-3.95-15.77-15.49-23.94-31.83-23.94-22,0-36.61,16.62-36.61,42.81s13.52,42.53,35.49,42.53c17.17,0,29.28-8.45,32.95-23.66h34.64c-4.23,32.39-31.26,54.63-67.59,54.63-42.25,0-69.85-29.28-69.85-73.5C952.79,324.47,981.24,294.05,1022.35,294.05Z" fill="#294394"/><path d="M1234.82,298.28l-68.16,170.1c-7.1,17.67-14.17,44.47-34.92,52.19-21.82,8.12-45.56-2.05-55.54-7.2-7.86-4.06-16.38-10.78-17.71-18.69-2.14-12.63,10.45-21.23,22.64-10.76,12.5,10.74,16.23,36.64,33.45,32.13,12.15-3.2,22.22-48.49,27-62.31a29.18,29.18,0,0,0-.08-20.82l-52-134.64h36.33l35.77,101.38,37.74-101.38Z" fill="#294394"/></svg>